<svg width="274" height="163" viewBox="0 0 274 163" fill="none" xmlns="http://www.w3.org/2000/svg">
<rect x="29.9238" y="0.733337" width="102.229" height="8.51905" rx="4.25952" transform="rotate(90 29.9238 0.733337)" fill="black"/>
<circle cx="25.6643" cy="114.676" r="5.3244" fill="black"/>
<path d="M0.107422 5.13672C36.6495 6.75626 63.9994 22.1659 64 41.1924C64 56.027 46.5058 68.7875 21.4043 74.4697V65.332C37.378 60.3442 48.0273 51.3996 48.0273 41.1924C48.0268 26.9177 27.1997 15.1107 0.107422 13.1465V5.13672Z" fill="black"/>
<path d="M71.1309 120C69.666 120 68.9336 119.268 68.9336 117.803V56.8652C68.9336 56.2142 69.0964 55.5957 69.4219 55.0098L72.8398 48.8086C73.4583 47.6693 73.9629 47.0996 74.3535 47.0996H76.0625C77.0391 47.0996 77.5273 47.6693 77.5273 48.8086V117.803C77.5273 119.268 76.7949 120 75.3301 120H71.1309ZM91.2969 102.129V70.9277C91.2969 69.4629 92.0293 68.7305 93.4941 68.7305H97.6934C99.1582 68.7305 99.8906 69.4629 99.8906 70.9277V99.7852C99.8906 106.165 100.949 110.218 103.064 111.943C105.18 113.636 107.801 114.482 110.926 114.482C115.027 114.482 118.169 113.229 120.35 110.723C122.531 108.184 123.621 103.854 123.621 97.7344V70.9277C123.621 69.4629 124.354 68.7305 125.818 68.7305H130.018C131.482 68.7305 132.215 69.4629 132.215 70.9277V117.803C132.215 119.268 131.482 120 130.018 120H125.916C124.451 120 123.719 119.268 123.719 117.803V113.896H123.523C121.408 116.24 119.129 117.982 116.688 119.121C114.246 120.26 111.268 120.83 107.752 120.83C102.055 120.83 97.8887 119.17 95.252 115.85C92.6152 112.497 91.2969 107.923 91.2969 102.129ZM148.279 120C146.814 120 146.082 119.268 146.082 117.803V70.9277C146.082 69.4629 146.814 68.7305 148.279 68.7305H152.381C153.846 68.7305 154.578 69.4629 154.578 70.9277V76.7871H154.773C156.336 73.8574 158.175 71.6439 160.291 70.1465C162.407 68.6491 165.044 67.9004 168.201 67.9004C170.285 67.9004 171.749 68.0794 172.596 68.4375C173.344 68.7305 173.621 69.2188 173.426 69.9023L172.303 73.9062C172.14 74.4922 171.717 74.7201 171.033 74.5898C169.894 74.362 168.82 74.248 167.811 74.248C164.002 74.248 160.861 75.9733 158.387 79.4238C155.913 82.8418 154.676 87.513 154.676 93.4375V117.803C154.676 119.268 153.943 120 152.479 120H148.279ZM178.553 106.328C178.553 100.534 181.255 96.2858 186.658 93.584C192.094 90.8822 200.2 89.3034 210.975 88.8477V85.5273C210.975 82.4674 210.275 79.8307 208.875 77.6172C207.508 75.3711 204.773 74.248 200.672 74.248C198.068 74.248 195.984 74.5085 194.422 75.0293C192.859 75.5176 191.427 76.1849 190.125 77.0312C188.855 77.8451 187.635 78.903 186.463 80.2051C185.584 81.1816 184.754 81.2305 183.973 80.3516L181.434 77.4219C180.717 76.6081 180.962 75.6315 182.166 74.4922C183.891 72.8646 185.568 71.6439 187.195 70.8301C188.823 70.0163 190.841 69.3327 193.25 68.7793C195.691 68.1934 198.165 67.9004 200.672 67.9004C207.475 67.9004 212.326 69.6582 215.223 73.1738C218.12 76.6569 219.568 81.4421 219.568 87.5293V117.803C219.568 119.268 218.836 120 217.371 120H212.977C211.707 120 211.072 119.268 211.072 117.803V115.41H210.975C208.403 117.428 205.88 118.844 203.406 119.658C200.965 120.439 198.23 120.83 195.203 120.83C189.865 120.83 185.747 119.561 182.85 117.021C179.985 114.45 178.553 110.885 178.553 106.328ZM187.439 106.523C187.439 108.542 187.863 110.169 188.709 111.406C189.555 112.611 190.727 113.392 192.225 113.75C193.722 114.076 195.285 114.238 196.912 114.238C199.419 114.238 201.795 113.994 204.041 113.506C206.287 113.018 208.598 111.732 210.975 109.648V95.2441C204.399 95.7324 199.712 96.3346 196.912 97.0508C194.113 97.7344 191.834 98.9388 190.076 100.664C188.318 102.357 187.439 104.31 187.439 106.523ZM235.682 120C234.217 120 233.484 119.268 233.484 117.803V56.8652C233.484 56.2142 233.647 55.5957 233.973 55.0098L237.391 48.8086C238.009 47.6693 238.514 47.0996 238.904 47.0996H240.613C241.59 47.0996 242.078 47.6693 242.078 48.8086V117.803C242.078 119.268 241.346 120 239.881 120H235.682Z" fill="black"/>
</svg>
